<svg xmlns="http://www.w3.org/2000/svg" viewBox="0 0 350 340"  xmlns:v="https://vecta.io/nano"><defs><clipPath id="A"><path d="M0 595.276h841.89V0H0z"/></clipPath></defs><g clip-path="url(#A)" transform="matrix(1 0 0 -1 -265 530)" fill="#303F9F"><path d="M465.24 390.06l-15.409 7.064-14.5 25.159s23.919-10.906 29.909-32.223m-28.051 134.97c-43.501 0-83.119-16.773-112.66-44.328 6.692 5.247 88.862 67.132 174.5-.371 89.357-70.437 48.228-177.09 14.008-210.91-44.989-44.463-145.5-60.054-199.79 4.706-13.9 16.579-21.705 34.775-24.203 56.285-2.671 22.993 5.136 67.516 53.416 83.409 25.749 8.476 47.22 3.264 59.365-3.305l-.041-.041c41.645-19.093 13.771-39.946 101.38-50.938 0 0 26.233 43.089-26.068 87.292-44.741 37.842-137.86 35.392-181.94-29.29-36.348-53.336-16.194-106.67-16.194-106.67 21.441-69.735 87.664-119.85 165.16-116.71 86.011 3.553 155.75 73.99 158.47 160 2.975 93.819-72.254 170.87-165.41 170.87M468.06 263.22c-37.202-21.277-97.513-35.862-144.02 17.156-12.154 13.881-20.679 30.755-23.005 49.074-.528 4.368-.774 8.948-.528 13.633.423 7.857 2.505 15.903 6.341 23.78 5.637 11.574 19.94 28.112 39.738 33.713 22.229 6.342 40.266 2.784 50.624-2.817l-.035-.036c-11.767-5.496-55.38-27.549-46.467-71.549 8.208-40.267 41.534-81.167 117.35-62.954"/></g></svg>